<svg width="125" height="13" viewBox="0 0 125 13" fill="none" xmlns="http://www.w3.org/2000/svg">
<path d="M0.0880001 12V0.16H3.416L6.12 6.256L8.904 0.16H12.12V12H9.688V3.936L7.256 9.232H4.968L2.52 3.904V12H0.0880001ZM13.6831 12L17.7151 0.16H20.9951L25.0271 12H22.4351L21.6831 9.68H17.0431L16.2751 12H13.6831ZM17.7311 7.536H20.9951L19.3631 2.592L17.7311 7.536ZM28.131 12V2.304H24.499V0.16H34.227V2.304H30.595V12H28.131ZM35.9318 12V0.16H38.3958V4.88H43.0038V0.16H45.4678V12H43.0038V7.024H38.3958V12H35.9318ZM48.9145 12.16C48.4558 12.16 48.0558 12.1333 47.7145 12.08C47.3732 12.0373 47.2025 12.016 47.2025 12.016V9.952C47.2025 9.952 47.3358 9.968 47.6025 10C47.8692 10.0213 48.1572 10.032 48.4665 10.032C49.2025 10.032 49.7892 9.856 50.2265 9.504C50.6638 9.152 50.8825 8.52267 50.8825 7.616V0.16H53.3305V7.664C53.3305 8.50667 53.1812 9.26933 52.8825 9.952C52.5838 10.624 52.1092 11.1627 51.4585 11.568C50.8185 11.9627 49.9705 12.16 48.9145 12.16ZM61.0459 12.16C60.0645 12.16 59.2005 11.9893 58.4539 11.648C57.7072 11.296 57.0779 10.832 56.5659 10.256C56.0645 9.66933 55.6859 9.01333 55.4299 8.288C55.1845 7.56267 55.0619 6.82133 55.0619 6.064C55.0619 5.30667 55.1845 4.57067 55.4299 3.856C55.6859 3.13067 56.0645 2.48 56.5659 1.904C57.0779 1.328 57.7072 0.869333 58.4539 0.528C59.2005 0.175999 60.0645 -9.53674e-07 61.0459 -9.53674e-07C62.0379 -9.53674e-07 62.9072 0.175999 63.6539 0.528C64.4005 0.869333 65.0245 1.328 65.5259 1.904C66.0272 2.48 66.4005 3.13067 66.6459 3.856C66.9019 4.57067 67.0299 5.30667 67.0299 6.064C67.0299 6.82133 66.9019 7.56267 66.6459 8.288C66.4005 9.01333 66.0272 9.66933 65.5259 10.256C65.0245 10.832 64.4005 11.296 63.6539 11.648C62.9072 11.9893 62.0379 12.16 61.0459 12.16ZM61.0459 9.936C61.7925 9.936 62.4219 9.74933 62.9339 9.376C63.4459 9.00267 63.8299 8.52267 64.0859 7.936C64.3419 7.33867 64.4699 6.71467 64.4699 6.064C64.4699 5.41333 64.3419 4.79467 64.0859 4.208C63.8299 3.62133 63.4459 3.14133 62.9339 2.768C62.4219 2.39467 61.7925 2.208 61.0459 2.208C60.2992 2.208 59.6699 2.39467 59.1579 2.768C58.6565 3.14133 58.2779 3.62133 58.0219 4.208C57.7659 4.79467 57.6379 5.41333 57.6379 6.064C57.6379 6.71467 57.7659 7.33867 58.0219 7.936C58.2779 8.52267 58.6565 9.00267 59.1579 9.376C59.6699 9.74933 60.2992 9.936 61.0459 9.936ZM73.5759 12.16C72.7119 12.16 71.9119 11.9947 71.1759 11.664C70.4505 11.3333 69.8639 10.8213 69.4159 10.128C68.9785 9.43467 68.7599 8.53333 68.7599 7.424V0.16H71.2239V7.424C71.2239 8.10667 71.4159 8.68267 71.7999 9.152C72.1839 9.61067 72.7759 9.84 73.5759 9.84C74.3759 9.84 74.9625 9.61067 75.3359 9.152C75.7199 8.68267 75.9119 8.10667 75.9119 7.424V0.16H78.3919V7.424C78.3919 8.53333 78.1679 9.43467 77.7199 10.128C77.2825 10.8213 76.6959 11.3333 75.9599 11.664C75.2239 11.9947 74.4292 12.16 73.5759 12.16ZM80.5724 12V0.16H85.3724C86.247 0.16 86.9937 0.314666 87.6124 0.624C88.2417 0.933333 88.7217 1.36 89.0524 1.904C89.3937 2.448 89.5644 3.07733 89.5644 3.792C89.5644 4.57067 89.367 5.25333 88.9724 5.84C88.5777 6.416 88.0177 6.83733 87.2924 7.104L89.8684 12H87.1324L84.7804 7.44H83.0364V12H80.5724ZM85.3404 2.288H83.0364V5.424H85.3404C85.8844 5.424 86.311 5.27467 86.6204 4.976C86.9297 4.67733 87.0844 4.30933 87.0844 3.872C87.0844 3.424 86.9297 3.05067 86.6204 2.752C86.311 2.44267 85.8844 2.288 85.3404 2.288ZM91.963 12V0.16H94.219L99.323 7.712V0.16H101.771V12H99.483L94.411 4.656V12H91.963ZM103.947 12V0.16H112.107V2.304H106.411V4.96H111.371V7.024H106.411V9.856H112.187V12H103.947ZM117.637 12V7.952L113.477 0.16H116.181L118.869 5.424L121.557 0.16H124.261L120.101 7.952V12H117.637Z" fill="#40513B"/>
</svg>
