<svg width="155" height="56" viewBox="0 0 155 56" fill="none" xmlns="http://www.w3.org/2000/svg">
<path d="M35.4781 43.6142L34.999 43.7071L35.0803 44.1884L36.3932 51.9564L36.4769 52.4514L36.9716 52.3657L50.8665 49.9587L51.2789 49.8873L51.2812 49.4688L51.5 9.64388L51.5003 9.589L51.4887 9.53535L51 9.64114C51.4887 9.53535 51.4887 9.53529 51.4887 9.53523L51.4886 9.5351L51.4886 9.5348L51.4884 9.53404L51.4879 9.53189L51.4864 9.52515L51.4812 9.50241C51.4768 9.48335 51.4704 9.45666 51.4621 9.42402C51.4456 9.35905 51.4213 9.269 51.3897 9.16791C51.3308 8.97926 51.2314 8.7013 51.0862 8.48611C50.8916 8.19784 50.5741 7.96144 50.354 7.81512C50.2358 7.73655 50.1278 7.67246 50.0492 7.6279C50.0097 7.60552 49.9771 7.58779 49.9539 7.57536L49.9261 7.56069L49.9179 7.55643L49.9153 7.5551L49.9144 7.55464L49.914 7.55445L49.9138 7.55438C49.9138 7.55434 49.9137 7.55431 49.6871 8L49.9137 7.55431L49.8069 7.5H49.6871H48.9212H48.1554H47.9635L47.8209 7.62835L26.2708 27.0234L4.61376 7.8445L4.49507 7.73939L4.33749 7.72188L3.35281 7.61247L3.24366 7.60034L3.13948 7.63507L2.1548 7.9633L2.0702 7.99149L2.00056 8.0472L1.45352 8.48484L1.37905 8.54441L1.33174 8.6272L0.894106 9.39307L0.829345 9.5064L0.828245 9.63692L0.500018 48.5866L0.497072 48.9362L0.824438 49.059L14.8288 54.3106L15.2917 54.4842L15.4705 54.0233L18.3151 46.6929L18.4969 46.2246L18.0277 46.0451L9.48878 42.7771L9.59019 24.4218L25.8328 38.7903L26.1663 39.0852L26.4978 38.7881L42.5068 24.4424L42.406 42.27L35.4781 43.6142Z" fill="#016494" stroke="#173D50"/>
<path d="M61.1932 46H52.125L63.9034 11.0909H75.1364L86.9148 46H77.8466L69.6477 19.8864H69.375L61.1932 46ZM59.983 32.2614H78.9375V38.6705H59.983V32.2614ZM85.1719 17.9432V11.0909H114.678V17.9432H104.092V46H95.7741V17.9432H85.1719ZM118.798 46V11.0909H127.236V25.1023H140.991V11.0909H149.412V46H140.991V31.9716H127.236V46H118.798Z" fill="#016494"/>
</svg>
