<svg width="319" height="54" viewBox="0 0 319 54" fill="none" xmlns="http://www.w3.org/2000/svg">
<path d="M35.8862 51.8731L34.5733 44.105L41.9037 42.6827L42.0131 23.3173L25.1641 38.4158L8.09628 23.3173L7.98687 43.1203L16.849 46.512L14.0044 53.8424L0 48.5908L0.328228 9.64114L0.765864 8.87527L1.31291 8.43764L2.29759 8.10941L3.28228 8.21882L25.2735 27.6937L47.1554 8H47.9212H48.6871C48.6871 8 49.3992 8.36209 49.6718 8.76586C49.876 9.06844 50 9.64114 50 9.64114L49.7812 49.4661L35.8862 51.8731Z" fill="#1E1E1E"/>
<path d="M60.0227 46.4432C58.3523 46.4432 56.8693 46.1648 55.5739 45.608C54.2898 45.0398 53.2727 44.1875 52.5227 43.0511C51.7841 41.9034 51.4148 40.4659 51.4148 38.7386C51.4148 37.2841 51.6705 36.0568 52.1818 35.0568C52.6932 34.0568 53.3977 33.2443 54.2955 32.6193C55.1932 31.9943 56.2273 31.5227 57.3977 31.2045C58.5682 30.875 59.8182 30.6534 61.1477 30.5398C62.6364 30.4034 63.8352 30.2614 64.7443 30.1136C65.6534 29.9545 66.3125 29.733 66.7216 29.4489C67.142 29.1534 67.3523 28.7386 67.3523 28.2045V28.1193C67.3523 27.2443 67.0511 26.5682 66.4489 26.0909C65.8466 25.6136 65.0341 25.375 64.0114 25.375C62.9091 25.375 62.0227 25.6136 61.3523 26.0909C60.6818 26.5682 60.2557 27.2273 60.0739 28.0682L52.3864 27.7955C52.6136 26.2045 53.1989 24.7841 54.142 23.5341C55.0966 22.2727 56.4034 21.2841 58.0625 20.5682C59.733 19.8409 61.7386 19.4773 64.0795 19.4773C65.75 19.4773 67.2898 19.6761 68.6989 20.0739C70.108 20.4602 71.3352 21.0284 72.3807 21.7784C73.4261 22.517 74.233 23.4261 74.8011 24.5057C75.3807 25.5852 75.6705 26.8182 75.6705 28.2045V46H67.8295V42.3523H67.625C67.1591 43.2386 66.5625 43.9886 65.8352 44.6023C65.1193 45.2159 64.2727 45.6761 63.2955 45.983C62.3295 46.2898 61.2386 46.4432 60.0227 46.4432ZM62.5966 40.9886C63.4943 40.9886 64.3011 40.8068 65.017 40.4432C65.7443 40.0795 66.3239 39.5795 66.7557 38.9432C67.1875 38.2955 67.4034 37.5455 67.4034 36.6932V34.2045C67.1648 34.3295 66.875 34.4432 66.5341 34.5455C66.2045 34.6477 65.8409 34.7443 65.4432 34.8352C65.0455 34.9261 64.6364 35.0057 64.2159 35.0739C63.7955 35.142 63.392 35.2045 63.0057 35.2614C62.2216 35.3864 61.5511 35.5795 60.9943 35.8409C60.4489 36.1023 60.0284 36.4432 59.733 36.8636C59.4489 37.2727 59.3068 37.7614 59.3068 38.3295C59.3068 39.1932 59.6136 39.8523 60.2273 40.3068C60.8523 40.7614 61.642 40.9886 62.5966 40.9886ZM95.5455 19.8182V25.9545H79.0284V19.8182H95.5455ZM82.4886 13.5455H90.8239V37.767C90.8239 38.2784 90.9034 38.6932 91.0625 39.0114C91.233 39.3182 91.4773 39.5398 91.7955 39.6761C92.1136 39.8011 92.4943 39.8636 92.9375 39.8636C93.2557 39.8636 93.5909 39.8352 93.9432 39.7784C94.3068 39.7102 94.5795 39.6534 94.7614 39.608L96.0227 45.625C95.625 45.7386 95.0625 45.8807 94.3352 46.0511C93.6193 46.2216 92.7614 46.3295 91.7614 46.375C89.8068 46.4659 88.1307 46.2386 86.733 45.6932C85.3466 45.1364 84.2841 44.2727 83.5455 43.1023C82.8182 41.9318 82.4659 40.4602 82.4886 38.6875V13.5455ZM108.696 31.0682V46H100.361V11.0909H108.423V24.625H108.713C109.304 23.0114 110.27 21.75 111.611 20.8409C112.963 19.9318 114.616 19.4773 116.571 19.4773C118.412 19.4773 120.014 19.8864 121.378 20.7045C122.741 21.5114 123.798 22.6534 124.548 24.1307C125.31 25.608 125.685 27.3352 125.673 29.3125V46H117.338V30.9489C117.349 29.4943 116.986 28.358 116.247 27.5398C115.509 26.7216 114.469 26.3125 113.128 26.3125C112.253 26.3125 111.48 26.5057 110.81 26.892C110.151 27.267 109.634 27.8068 109.259 28.5114C108.895 29.2159 108.707 30.0682 108.696 31.0682ZM143.115 46.4943C140.376 46.4943 138.013 45.9545 136.024 44.875C134.047 43.7841 132.524 42.233 131.456 40.2216C130.399 38.1989 129.871 35.7955 129.871 33.0114C129.871 30.3068 130.405 27.9432 131.473 25.9205C132.541 23.8864 134.047 22.3068 135.99 21.1818C137.933 20.0455 140.223 19.4773 142.859 19.4773C144.723 19.4773 146.428 19.767 147.973 20.3466C149.518 20.9261 150.854 21.7841 151.979 22.9205C153.104 24.0568 153.979 25.4602 154.604 27.1307C155.229 28.7898 155.541 30.6932 155.541 32.8409V34.9205H132.786V30.0795H147.786C147.774 29.1932 147.564 28.4034 147.155 27.7102C146.746 27.017 146.183 26.4773 145.467 26.0909C144.763 25.6932 143.95 25.4943 143.03 25.4943C142.098 25.4943 141.263 25.7045 140.524 26.125C139.786 26.5341 139.2 27.0966 138.768 27.8125C138.337 28.517 138.109 29.3182 138.087 30.2159V35.142C138.087 36.2102 138.297 37.1477 138.717 37.9545C139.138 38.75 139.734 39.3693 140.507 39.8125C141.28 40.2557 142.2 40.4773 143.268 40.4773C144.007 40.4773 144.678 40.375 145.28 40.1705C145.882 39.9659 146.399 39.6648 146.831 39.267C147.263 38.8693 147.587 38.3807 147.803 37.8011L155.456 38.0227C155.138 39.7386 154.439 41.233 153.359 42.5057C152.291 43.767 150.888 44.75 149.149 45.4545C147.411 46.1477 145.399 46.4943 143.115 46.4943ZM159.798 46V19.8182H167.724V24.625H168.014C168.56 23.0341 169.48 21.7784 170.776 20.858C172.071 19.9375 173.616 19.4773 175.412 19.4773C177.23 19.4773 178.787 19.9432 180.082 20.875C181.378 21.8068 182.202 23.0568 182.554 24.625H182.827C183.315 23.0682 184.27 21.8239 185.69 20.892C187.111 19.9489 188.787 19.4773 190.719 19.4773C193.196 19.4773 195.207 20.2727 196.753 21.8636C198.298 23.4432 199.071 25.6136 199.071 28.375V46H190.736V30.2841C190.736 28.9773 190.401 27.983 189.73 27.3011C189.06 26.608 188.19 26.2614 187.122 26.2614C185.974 26.2614 185.071 26.6364 184.412 27.3864C183.764 28.125 183.44 29.1193 183.44 30.3693V46H175.429V30.1989C175.429 28.983 175.099 28.0227 174.44 27.3182C173.781 26.6136 172.912 26.2614 171.832 26.2614C171.105 26.2614 170.463 26.4375 169.906 26.7898C169.349 27.1307 168.912 27.6193 168.594 28.2557C168.287 28.892 168.134 29.642 168.134 30.5057V46H159.798ZM211.616 46.4432C209.946 46.4432 208.463 46.1648 207.168 45.608C205.884 45.0398 204.866 44.1875 204.116 43.0511C203.378 41.9034 203.009 40.4659 203.009 38.7386C203.009 37.2841 203.264 36.0568 203.776 35.0568C204.287 34.0568 204.991 33.2443 205.889 32.6193C206.787 31.9943 207.821 31.5227 208.991 31.2045C210.162 30.875 211.412 30.6534 212.741 30.5398C214.23 30.4034 215.429 30.2614 216.338 30.1136C217.247 29.9545 217.906 29.733 218.315 29.4489C218.736 29.1534 218.946 28.7386 218.946 28.2045V28.1193C218.946 27.2443 218.645 26.5682 218.043 26.0909C217.44 25.6136 216.628 25.375 215.605 25.375C214.503 25.375 213.616 25.6136 212.946 26.0909C212.276 26.5682 211.849 27.2273 211.668 28.0682L203.98 27.7955C204.207 26.2045 204.793 24.7841 205.736 23.5341C206.69 22.2727 207.997 21.2841 209.656 20.5682C211.327 19.8409 213.332 19.4773 215.673 19.4773C217.344 19.4773 218.884 19.6761 220.293 20.0739C221.702 20.4602 222.929 21.0284 223.974 21.7784C225.02 22.517 225.827 23.4261 226.395 24.5057C226.974 25.5852 227.264 26.8182 227.264 28.2045V46H219.423V42.3523H219.219C218.753 43.2386 218.156 43.9886 217.429 44.6023C216.713 45.2159 215.866 45.6761 214.889 45.983C213.923 46.2898 212.832 46.4432 211.616 46.4432ZM214.19 40.9886C215.088 40.9886 215.895 40.8068 216.611 40.4432C217.338 40.0795 217.918 39.5795 218.349 38.9432C218.781 38.2955 218.997 37.5455 218.997 36.6932V34.2045C218.759 34.3295 218.469 34.4432 218.128 34.5455C217.798 34.6477 217.435 34.7443 217.037 34.8352C216.639 34.9261 216.23 35.0057 215.81 35.0739C215.389 35.142 214.986 35.2045 214.599 35.2614C213.815 35.3864 213.145 35.5795 212.588 35.8409C212.043 36.1023 211.622 36.4432 211.327 36.8636C211.043 37.2727 210.901 37.7614 210.901 38.3295C210.901 39.1932 211.207 39.8523 211.821 40.3068C212.446 40.7614 213.236 40.9886 214.19 40.9886ZM247.139 19.8182V25.9545H230.622V19.8182H247.139ZM234.082 13.5455H242.418V37.767C242.418 38.2784 242.497 38.6932 242.656 39.0114C242.827 39.3182 243.071 39.5398 243.389 39.6761C243.707 39.8011 244.088 39.8636 244.531 39.8636C244.849 39.8636 245.185 39.8352 245.537 39.7784C245.901 39.7102 246.173 39.6534 246.355 39.608L247.616 45.625C247.219 45.7386 246.656 45.8807 245.929 46.0511C245.213 46.2216 244.355 46.3295 243.355 46.375C241.401 46.4659 239.724 46.2386 238.327 45.6932C236.94 45.1364 235.878 44.2727 235.139 43.1023C234.412 41.9318 234.06 40.4602 234.082 38.6875V13.5455ZM251.392 46V19.8182H259.727V46H251.392ZM255.568 16.767C254.398 16.767 253.392 16.3807 252.551 15.608C251.71 14.8239 251.29 13.8807 251.29 12.7784C251.29 11.6875 251.71 10.7557 252.551 9.98295C253.392 9.19886 254.398 8.80682 255.568 8.80682C256.75 8.80682 257.756 9.19886 258.585 9.98295C259.426 10.7557 259.847 11.6875 259.847 12.7784C259.847 13.8807 259.426 14.8239 258.585 15.608C257.756 16.3807 256.75 16.767 255.568 16.767ZM277.254 46.4943C274.493 46.4943 272.124 45.9261 270.146 44.7898C268.18 43.6534 266.669 42.0739 265.612 40.0511C264.555 38.017 264.027 35.6648 264.027 32.9943C264.027 30.3125 264.555 27.9602 265.612 25.9375C266.68 23.9034 268.197 22.3182 270.163 21.1818C272.141 20.0455 274.499 19.4773 277.237 19.4773C279.658 19.4773 281.766 19.9148 283.561 20.7898C285.368 21.6648 286.777 22.9034 287.788 24.5057C288.811 26.0966 289.351 27.9659 289.408 30.1136H281.618C281.459 28.7727 281.004 27.7216 280.254 26.9602C279.516 26.1989 278.55 25.8182 277.357 25.8182C276.391 25.8182 275.544 26.0909 274.817 26.6364C274.089 27.1705 273.521 27.9659 273.112 29.0227C272.714 30.0682 272.516 31.3636 272.516 32.9091C272.516 34.4545 272.714 35.7614 273.112 36.8295C273.521 37.8864 274.089 38.6875 274.817 39.233C275.544 39.767 276.391 40.0341 277.357 40.0341C278.129 40.0341 278.811 39.8693 279.402 39.5398C280.004 39.2102 280.499 38.7273 280.885 38.0909C281.271 37.4432 281.516 36.6591 281.618 35.7386H289.408C289.328 37.8977 288.788 39.7841 287.788 41.3977C286.8 43.0114 285.408 44.267 283.612 45.1648C281.828 46.0511 279.709 46.4943 277.254 46.4943ZM316.531 27.8125L308.878 28.017C308.798 27.4716 308.582 26.9886 308.23 26.5682C307.878 26.1364 307.418 25.8011 306.849 25.5625C306.293 25.3125 305.645 25.1875 304.906 25.1875C303.94 25.1875 303.116 25.3807 302.435 25.767C301.764 26.1534 301.435 26.6761 301.446 27.3352C301.435 27.8466 301.639 28.2898 302.06 28.6648C302.491 29.0398 303.259 29.3409 304.361 29.5682L309.406 30.5227C312.02 31.0227 313.963 31.8523 315.236 33.0114C316.52 34.1705 317.168 35.7045 317.179 37.6136C317.168 39.4091 316.634 40.9716 315.577 42.3011C314.531 43.6307 313.099 44.6648 311.281 45.4034C309.463 46.1307 307.384 46.4943 305.043 46.4943C301.304 46.4943 298.355 45.7273 296.196 44.1932C294.048 42.6477 292.821 40.5795 292.514 37.9886L300.747 37.7841C300.929 38.7386 301.401 39.4659 302.162 39.9659C302.923 40.4659 303.895 40.7159 305.077 40.7159C306.145 40.7159 307.014 40.517 307.685 40.1193C308.355 39.7216 308.696 39.1932 308.707 38.5341C308.696 37.9432 308.435 37.4716 307.923 37.1193C307.412 36.7557 306.611 36.4716 305.52 36.267L300.952 35.3977C298.327 34.9205 296.372 34.0398 295.088 32.7557C293.804 31.4602 293.168 29.8125 293.179 27.8125C293.168 26.0625 293.634 24.5682 294.577 23.3295C295.52 22.0795 296.861 21.125 298.599 20.4659C300.338 19.8068 302.389 19.4773 304.753 19.4773C308.298 19.4773 311.094 20.2216 313.139 21.7102C315.185 23.1875 316.315 25.2216 316.531 27.8125Z" fill="#016494"/>
</svg>
