<svg width="120" height="49" viewBox="0 0 120 49" fill="none" xmlns="http://www.w3.org/2000/svg">
<path d="M1.44 18V0.24H7.68L10.968 8.352L14.448 0.24H20.448V18H15.888V7.416L13.056 14.112H8.832L6 7.368V18H1.44ZM22.3706 18L28.2746 0.24H34.4906L40.3946 18H35.5946L34.6586 15.024H28.1066L27.1706 18H22.3706ZM29.3306 11.088H33.4346L31.3946 4.536L29.3306 11.088ZM44.4426 18V4.224H39.0666V0.24H54.4266V4.224H49.0506V18H44.4426ZM56.7056 18V0.24H61.3136V6.912H67.1696V0.24H71.7776V18H67.1696V10.848H61.3136V18H56.7056ZM3.792 48.24C2.992 48.24 2.32 48.2 1.776 48.12C1.232 48.04 0.96 48 0.96 48V44.232C0.96 44.232 1.152 44.256 1.536 44.304C1.92 44.336 2.36 44.352 2.856 44.352C3.88 44.352 4.688 44.112 5.28 43.632C5.888 43.152 6.192 42.28 6.192 41.016V30.24H10.752V41.136C10.752 42.064 10.632 42.96 10.392 43.824C10.152 44.672 9.76 45.432 9.216 46.104C8.688 46.76 7.976 47.28 7.08 47.664C6.184 48.048 5.088 48.24 3.792 48.24ZM22.1475 48.24C20.6115 48.24 19.2675 47.984 18.1155 47.472C16.9635 46.944 16.0035 46.248 15.2355 45.384C14.4675 44.504 13.8835 43.52 13.4835 42.432C13.0995 41.344 12.9075 40.232 12.9075 39.096C12.9075 37.96 13.0995 36.856 13.4835 35.784C13.8835 34.696 14.4675 33.72 15.2355 32.856C16.0035 31.992 16.9635 31.304 18.1155 30.792C19.2675 30.264 20.6115 30 22.1475 30C23.6835 30 25.0275 30.264 26.1795 30.792C27.3315 31.304 28.2915 31.992 29.0595 32.856C29.8435 33.72 30.4275 34.696 30.8115 35.784C31.1955 36.856 31.3875 37.96 31.3875 39.096C31.3875 40.232 31.1955 41.344 30.8115 42.432C30.4275 43.52 29.8435 44.504 29.0595 45.384C28.2915 46.248 27.3315 46.944 26.1795 47.472C25.0275 47.984 23.6835 48.24 22.1475 48.24ZM22.1475 44.136C23.1395 44.136 23.9635 43.896 24.6195 43.416C25.2755 42.92 25.7635 42.288 26.0835 41.52C26.4195 40.736 26.5875 39.928 26.5875 39.096C26.5875 38.264 26.4195 37.464 26.0835 36.696C25.7635 35.928 25.2755 35.304 24.6195 34.824C23.9635 34.328 23.1395 34.08 22.1475 34.08C21.1715 34.08 20.3555 34.328 19.6995 34.824C19.0435 35.304 18.5475 35.928 18.2115 36.696C17.8915 37.464 17.7315 38.264 17.7315 39.096C17.7315 39.928 17.8915 40.736 18.2115 41.52C18.5475 42.288 19.0435 42.92 19.6995 43.416C20.3555 43.896 21.1715 44.136 22.1475 44.136ZM41.0614 48.24C40.1494 48.24 39.2454 48.112 38.3494 47.856C37.4534 47.6 36.6454 47.184 35.9254 46.608C35.2054 46.032 34.6294 45.272 34.1974 44.328C33.7654 43.368 33.5494 42.192 33.5494 40.8V30.24H38.1574V40.8C38.1574 41.664 38.3894 42.4 38.8534 43.008C39.3174 43.616 40.0534 43.92 41.0614 43.92C42.0694 43.92 42.8054 43.616 43.2694 43.008C43.7334 42.4 43.9654 41.664 43.9654 40.8V30.24H48.5734V40.8C48.5734 42.192 48.3574 43.368 47.9254 44.328C47.4934 45.272 46.9174 46.032 46.1974 46.608C45.4774 47.184 44.6694 47.6 43.7734 47.856C42.8774 48.112 41.9734 48.24 41.0614 48.24ZM51.4556 48V30.24H59.2796C60.6076 30.24 61.7756 30.456 62.7836 30.888C63.7916 31.32 64.5756 31.96 65.1356 32.808C65.6956 33.64 65.9756 34.672 65.9756 35.904C65.9756 37.104 65.6956 38.128 65.1356 38.976C64.5916 39.808 63.8396 40.44 62.8796 40.872L66.3356 48H61.2716L58.2716 41.568H56.0636V48H51.4556ZM59.2076 34.2H56.0636V37.896H59.2076C59.8476 37.896 60.3676 37.736 60.7676 37.416C61.1676 37.096 61.3676 36.64 61.3676 36.048C61.3676 35.44 61.1676 34.984 60.7676 34.68C60.3676 34.36 59.8476 34.2 59.2076 34.2ZM69.2447 48V30.24H73.4927L80.0447 40.104V30.24H84.6047V48H80.3087L73.8047 38.64V48H69.2447ZM87.4791 48V30.24H100.343V34.224H92.0871V37.104H99.2631V40.896H92.0871V44.016H100.463V48H87.4791ZM108.533 48V42.072L102.269 30.24H107.309L110.837 37.344L114.341 30.24H119.405L113.141 42.072V48H108.533Z" fill="#40513B"/>
</svg>
