<svg width="155" height="19" viewBox="0 0 155 19" fill="none" xmlns="http://www.w3.org/2000/svg">
<path d="M9.768 18.24C8.296 18.24 7 17.984 5.88 17.472C4.76 16.944 3.824 16.248 3.072 15.384C2.336 14.504 1.776 13.52 1.392 12.432C1.024 11.344 0.84 10.232 0.84 9.096C0.84 7.976 1.024 6.872 1.392 5.784C1.776 4.696 2.336 3.72 3.072 2.856C3.824 1.992 4.76 1.304 5.88 0.792C7 0.263999 8.296 -1.43051e-06 9.768 -1.43051e-06C11.032 -1.43051e-06 12.104 0.159999 12.984 0.48C13.88 0.783999 14.624 1.192 15.216 1.704C15.824 2.2 16.304 2.728 16.656 3.288C17.024 3.832 17.296 4.352 17.472 4.848C17.648 5.344 17.76 5.752 17.808 6.072C17.872 6.392 17.904 6.552 17.904 6.552H13.8C13.8 6.552 13.752 6.408 13.656 6.12C13.576 5.832 13.4 5.504 13.128 5.136C12.872 4.752 12.48 4.416 11.952 4.128C11.424 3.84 10.712 3.696 9.816 3.696C8.776 3.696 7.904 3.96 7.2 4.488C6.512 5.016 5.992 5.696 5.64 6.528C5.304 7.344 5.136 8.2 5.136 9.096C5.136 9.992 5.304 10.856 5.64 11.688C5.992 12.52 6.512 13.2 7.2 13.728C7.904 14.256 8.776 14.52 9.816 14.52C10.712 14.52 11.424 14.376 11.952 14.088C12.48 13.8 12.872 13.472 13.128 13.104C13.4 12.736 13.576 12.408 13.656 12.12C13.752 11.832 13.8 11.688 13.8 11.688H17.904C17.904 11.688 17.872 11.848 17.808 12.168C17.76 12.472 17.648 12.88 17.472 13.392C17.296 13.888 17.024 14.416 16.656 14.976C16.304 15.52 15.824 16.048 15.216 16.56C14.624 17.056 13.88 17.464 12.984 17.784C12.104 18.088 11.032 18.24 9.768 18.24ZM18.3891 18L24.3651 0.24H29.9331L35.9091 18H31.5651L30.5331 14.76H23.7651L22.7331 18H18.3891ZM24.9171 11.208H29.4051L27.1491 4.224L24.9171 11.208ZM38.0516 18V0.24H42.2036V14.4H50.7476V18H38.0516ZM60.9789 18.24C59.5069 18.24 58.2109 17.984 57.0909 17.472C55.9709 16.944 55.0349 16.248 54.2829 15.384C53.5469 14.504 52.9869 13.52 52.6029 12.432C52.2349 11.344 52.0509 10.232 52.0509 9.096C52.0509 7.976 52.2349 6.872 52.6029 5.784C52.9869 4.696 53.5469 3.72 54.2829 2.856C55.0349 1.992 55.9709 1.304 57.0909 0.792C58.2109 0.263999 59.5069 -1.43051e-06 60.9789 -1.43051e-06C62.2429 -1.43051e-06 63.3149 0.159999 64.1949 0.48C65.0909 0.783999 65.8349 1.192 66.4269 1.704C67.0349 2.2 67.5149 2.728 67.8669 3.288C68.2349 3.832 68.5069 4.352 68.6829 4.848C68.8589 5.344 68.9709 5.752 69.0189 6.072C69.0829 6.392 69.1149 6.552 69.1149 6.552H65.0109C65.0109 6.552 64.9629 6.408 64.8669 6.12C64.7869 5.832 64.6109 5.504 64.3389 5.136C64.0829 4.752 63.6909 4.416 63.1629 4.128C62.6349 3.84 61.9229 3.696 61.0269 3.696C59.9869 3.696 59.1149 3.96 58.4109 4.488C57.7229 5.016 57.2029 5.696 56.8509 6.528C56.5149 7.344 56.3469 8.2 56.3469 9.096C56.3469 9.992 56.5149 10.856 56.8509 11.688C57.2029 12.52 57.7229 13.2 58.4109 13.728C59.1149 14.256 59.9869 14.52 61.0269 14.52C61.9229 14.52 62.6349 14.376 63.1629 14.088C63.6909 13.8 64.0829 13.472 64.3389 13.104C64.6109 12.736 64.7869 12.408 64.8669 12.12C64.9629 11.832 65.0109 11.688 65.0109 11.688H69.1149C69.1149 11.688 69.0829 11.848 69.0189 12.168C68.9709 12.472 68.8589 12.88 68.6829 13.392C68.5069 13.888 68.2349 14.416 67.8669 14.976C67.5149 15.52 67.0349 16.048 66.4269 16.56C65.8349 17.056 65.0909 17.464 64.1949 17.784C63.3149 18.088 62.2429 18.24 60.9789 18.24ZM78.8649 18.24C77.9209 18.24 77.0089 18.112 76.1289 17.856C75.2489 17.584 74.4569 17.16 73.7529 16.584C73.0649 16.008 72.5129 15.256 72.0969 14.328C71.6969 13.4 71.4969 12.28 71.4969 10.968V0.24H75.6489V10.968C75.6489 11.912 75.9049 12.712 76.4169 13.368C76.9449 14.008 77.7609 14.328 78.8649 14.328C79.9689 14.328 80.7769 14.008 81.2889 13.368C81.8169 12.712 82.0809 11.912 82.0809 10.968V0.24H86.2329V10.968C86.2329 12.28 86.0249 13.4 85.6089 14.328C85.2089 15.256 84.6569 16.008 83.9529 16.584C83.2649 17.16 82.4809 17.584 81.6009 17.856C80.7209 18.112 79.8089 18.24 78.8649 18.24ZM94.0614 18V3.84H88.6614V0.24H103.637V3.84H98.2374V18H94.0614ZM106.067 18V0.24H118.619V3.84H110.219V7.272H117.539V10.704H110.219V14.4H118.739V18H106.067ZM129.51 18.24C128.038 18.24 126.742 17.984 125.622 17.472C124.502 16.944 123.566 16.248 122.814 15.384C122.078 14.504 121.518 13.52 121.134 12.432C120.766 11.344 120.582 10.232 120.582 9.096C120.582 7.976 120.766 6.872 121.134 5.784C121.518 4.696 122.078 3.72 122.814 2.856C123.566 1.992 124.502 1.304 125.622 0.792C126.742 0.263999 128.038 -1.43051e-06 129.51 -1.43051e-06C130.774 -1.43051e-06 131.846 0.159999 132.726 0.48C133.622 0.783999 134.366 1.192 134.958 1.704C135.566 2.2 136.046 2.728 136.398 3.288C136.766 3.832 137.038 4.352 137.214 4.848C137.39 5.344 137.502 5.752 137.55 6.072C137.614 6.392 137.646 6.552 137.646 6.552H133.542C133.542 6.552 133.494 6.408 133.398 6.12C133.318 5.832 133.142 5.504 132.87 5.136C132.614 4.752 132.222 4.416 131.694 4.128C131.166 3.84 130.454 3.696 129.558 3.696C128.518 3.696 127.646 3.96 126.942 4.488C126.254 5.016 125.734 5.696 125.382 6.528C125.046 7.344 124.878 8.2 124.878 9.096C124.878 9.992 125.046 10.856 125.382 11.688C125.734 12.52 126.254 13.2 126.942 13.728C127.646 14.256 128.518 14.52 129.558 14.52C130.454 14.52 131.166 14.376 131.694 14.088C132.222 13.8 132.614 13.472 132.87 13.104C133.142 12.736 133.318 12.408 133.398 12.12C133.494 11.832 133.542 11.688 133.542 11.688H137.646C137.646 11.688 137.614 11.848 137.55 12.168C137.502 12.472 137.39 12.88 137.214 13.392C137.038 13.888 136.766 14.416 136.398 14.976C136.046 15.52 135.566 16.048 134.958 16.56C134.366 17.056 133.622 17.464 132.726 17.784C131.846 18.088 130.774 18.24 129.51 18.24ZM140.028 18V0.24H144.18V7.128H150.564V0.24H154.716V18H150.564V10.68H144.18V18H140.028Z" fill="white"/>
</svg>
